<svg width="34" height="34" viewBox="0 0 34 34" fill="none" xmlns="http://www.w3.org/2000/svg">
<g id="Iconly/Bold/Arrow - Left Circle">
<g id="Arrow - Left Circle">
<path id="Arrow - Left Circle_2" fill-rule="evenodd" clip-rule="evenodd" d="M2.83331 16.9999C2.83331 9.17992 9.19415 2.83325 17 2.83325L17.3963 2.8387C25.0333 3.04882 31.1666 9.31246 31.1666 16.9999C31.1666 24.8058 24.82 31.1666 17 31.1666C9.19415 31.1666 2.83331 24.8058 2.83331 16.9999ZM19.805 22.6666C20.2158 22.2416 20.2158 21.5758 19.7908 21.1649L15.6116 16.9999L19.7908 12.8349C20.2158 12.4241 20.2158 11.7441 19.805 11.3333C19.38 10.9083 18.7141 10.9083 18.3033 11.3333L13.3591 16.2491C13.1608 16.4474 13.0475 16.7166 13.0475 16.9999C13.0475 17.2833 13.1608 17.5524 13.3591 17.7508L18.3033 22.6666C18.5016 22.8791 18.7708 22.9783 19.04 22.9783C19.3233 22.9783 19.5925 22.8791 19.805 22.6666Z" fill="#FFA13B"/>
</g>
</g>
</svg>
